<mxfile host="app.diagrams.net" agent="Mozilla/5.0 (Macintosh; Intel Mac OS X 10_15_7) AppleWebKit/605.1.15 (KHTML, like Gecko) Version/18.3 Safari/605.1.15" version="26.2.6">
  <diagram name="Страница — 1" id="g3jaFhepwWC_fLxdilnd">
    <mxGraphModel dx="1893" dy="1072" grid="1" gridSize="10" guides="1" tooltips="1" connect="1" arrows="1" fold="1" page="1" pageScale="1" pageWidth="827" pageHeight="1169" math="0" shadow="0">
      <root>
        <mxCell id="0" />
        <mxCell id="1" parent="0" />
        <mxCell id="V6rCQQX0uQh7xSVh1jad-47" value="" style="rounded=0;whiteSpace=wrap;html=1;" vertex="1" parent="1">
          <mxGeometry x="-50" y="20" width="990" height="790" as="geometry" />
        </mxCell>
        <mxCell id="V6rCQQX0uQh7xSVh1jad-48" value="" style="rounded=1;whiteSpace=wrap;html=1;" vertex="1" parent="1">
          <mxGeometry x="480" y="520" width="120" height="60" as="geometry" />
        </mxCell>
        <mxCell id="V6rCQQX0uQh7xSVh1jad-1" value="Ведущий мастер-классов" style="shape=umlActor;verticalLabelPosition=bottom;verticalAlign=top;html=1;outlineConnect=0;" vertex="1" parent="1">
          <mxGeometry x="70" y="340" width="30" height="60" as="geometry" />
        </mxCell>
        <mxCell id="V6rCQQX0uQh7xSVh1jad-2" value="Аудитория мастер-классов" style="shape=umlActor;verticalLabelPosition=bottom;verticalAlign=top;html=1;outlineConnect=0;" vertex="1" parent="1">
          <mxGeometry x="770" y="340" width="30" height="60" as="geometry" />
        </mxCell>
        <mxCell id="V6rCQQX0uQh7xSVh1jad-3" value="" style="rounded=0;whiteSpace=wrap;html=1;" vertex="1" parent="1">
          <mxGeometry x="179" y="120" width="470" height="560" as="geometry" />
        </mxCell>
        <mxCell id="V6rCQQX0uQh7xSVh1jad-4" value="Проведение интерактивов" style="ellipse;whiteSpace=wrap;html=1;" vertex="1" parent="1">
          <mxGeometry x="360" y="150" width="120" height="80" as="geometry" />
        </mxCell>
        <mxCell id="V6rCQQX0uQh7xSVh1jad-5" value="Участие в интерактиве" style="ellipse;whiteSpace=wrap;html=1;" vertex="1" parent="1">
          <mxGeometry x="360" y="240" width="120" height="80" as="geometry" />
        </mxCell>
        <mxCell id="V6rCQQX0uQh7xSVh1jad-7" value="Организаторы мероприятий" style="shape=umlActor;verticalLabelPosition=bottom;verticalAlign=top;html=1;outlineConnect=0;" vertex="1" parent="1">
          <mxGeometry x="70" y="600" width="30" height="60" as="geometry" />
        </mxCell>
        <mxCell id="V6rCQQX0uQh7xSVh1jad-8" value="Отделы принятий решений" style="shape=umlActor;verticalLabelPosition=bottom;verticalAlign=top;html=1;outlineConnect=0;" vertex="1" parent="1">
          <mxGeometry x="750" y="600" width="30" height="60" as="geometry" />
        </mxCell>
        <mxCell id="V6rCQQX0uQh7xSVh1jad-17" value="Описание текущего бизнес процесса" style="text;html=1;align=center;verticalAlign=middle;whiteSpace=wrap;rounded=0;" vertex="1" parent="1">
          <mxGeometry x="350" y="80" width="150" height="30" as="geometry" />
        </mxCell>
        <mxCell id="V6rCQQX0uQh7xSVh1jad-19" value="Бизнес процесс" style="text;html=1;align=center;verticalAlign=middle;whiteSpace=wrap;rounded=0;" vertex="1" parent="1">
          <mxGeometry x="220" y="130" width="110" height="20" as="geometry" />
        </mxCell>
        <mxCell id="V6rCQQX0uQh7xSVh1jad-21" value="Сбор данных от аудитории" style="ellipse;whiteSpace=wrap;html=1;" vertex="1" parent="1">
          <mxGeometry x="360" y="330" width="120" height="80" as="geometry" />
        </mxCell>
        <mxCell id="V6rCQQX0uQh7xSVh1jad-23" value="Отсутствие сбора данных" style="ellipse;whiteSpace=wrap;html=1;" vertex="1" parent="1">
          <mxGeometry x="270" y="410" width="120" height="80" as="geometry" />
        </mxCell>
        <mxCell id="V6rCQQX0uQh7xSVh1jad-24" value="Неэффективный сбор данных" style="ellipse;whiteSpace=wrap;html=1;" vertex="1" parent="1">
          <mxGeometry x="450" y="410" width="120" height="80" as="geometry" />
        </mxCell>
        <mxCell id="V6rCQQX0uQh7xSVh1jad-25" value="Отсутствие данных/&lt;div&gt;Непрезентативные данные&lt;/div&gt;" style="ellipse;whiteSpace=wrap;html=1;fillColor=#FF5151;" vertex="1" parent="1">
          <mxGeometry x="350" y="515" width="140" height="85" as="geometry" />
        </mxCell>
        <mxCell id="V6rCQQX0uQh7xSVh1jad-29" value="" style="endArrow=none;html=1;rounded=0;exitX=0.5;exitY=0.5;exitDx=0;exitDy=0;exitPerimeter=0;" edge="1" parent="1" source="V6rCQQX0uQh7xSVh1jad-1" target="V6rCQQX0uQh7xSVh1jad-4">
          <mxGeometry width="50" height="50" relative="1" as="geometry">
            <mxPoint x="100" y="210" as="sourcePoint" />
            <mxPoint x="150" y="160" as="targetPoint" />
          </mxGeometry>
        </mxCell>
        <mxCell id="V6rCQQX0uQh7xSVh1jad-30" value="" style="endArrow=none;html=1;rounded=0;exitX=1;exitY=0.5;exitDx=0;exitDy=0;entryX=0.5;entryY=0.5;entryDx=0;entryDy=0;entryPerimeter=0;" edge="1" parent="1" source="V6rCQQX0uQh7xSVh1jad-5" target="V6rCQQX0uQh7xSVh1jad-2">
          <mxGeometry width="50" height="50" relative="1" as="geometry">
            <mxPoint x="710" y="250" as="sourcePoint" />
            <mxPoint x="760" y="200" as="targetPoint" />
          </mxGeometry>
        </mxCell>
        <mxCell id="V6rCQQX0uQh7xSVh1jad-32" value="" style="endArrow=none;html=1;rounded=0;entryX=0;entryY=0.5;entryDx=0;entryDy=0;exitX=1;exitY=0.3333333333333333;exitDx=0;exitDy=0;exitPerimeter=0;" edge="1" parent="1" source="V6rCQQX0uQh7xSVh1jad-1" target="V6rCQQX0uQh7xSVh1jad-21">
          <mxGeometry width="50" height="50" relative="1" as="geometry">
            <mxPoint x="100" y="200" as="sourcePoint" />
            <mxPoint x="150" y="160" as="targetPoint" />
          </mxGeometry>
        </mxCell>
        <mxCell id="V6rCQQX0uQh7xSVh1jad-35" value="" style="endArrow=classic;html=1;rounded=0;exitX=0;exitY=1;exitDx=0;exitDy=0;entryX=0.775;entryY=0.1;entryDx=0;entryDy=0;entryPerimeter=0;" edge="1" parent="1" source="V6rCQQX0uQh7xSVh1jad-21" target="V6rCQQX0uQh7xSVh1jad-23">
          <mxGeometry width="50" height="50" relative="1" as="geometry">
            <mxPoint x="490" y="570" as="sourcePoint" />
            <mxPoint x="370" y="410" as="targetPoint" />
          </mxGeometry>
        </mxCell>
        <mxCell id="V6rCQQX0uQh7xSVh1jad-37" value="" style="endArrow=classic;html=1;rounded=0;exitX=1;exitY=1;exitDx=0;exitDy=0;entryX=0.258;entryY=0.1;entryDx=0;entryDy=0;entryPerimeter=0;" edge="1" parent="1" source="V6rCQQX0uQh7xSVh1jad-21" target="V6rCQQX0uQh7xSVh1jad-24">
          <mxGeometry width="50" height="50" relative="1" as="geometry">
            <mxPoint x="388" y="408" as="sourcePoint" />
            <mxPoint x="369" y="439" as="targetPoint" />
          </mxGeometry>
        </mxCell>
        <mxCell id="V6rCQQX0uQh7xSVh1jad-38" value="" style="endArrow=classic;html=1;rounded=0;exitX=0;exitY=1;exitDx=0;exitDy=0;entryX=0.5;entryY=0;entryDx=0;entryDy=0;" edge="1" parent="1" target="V6rCQQX0uQh7xSVh1jad-25">
          <mxGeometry width="50" height="50" relative="1" as="geometry">
            <mxPoint x="330" y="490" as="sourcePoint" />
            <mxPoint x="311" y="511" as="targetPoint" />
          </mxGeometry>
        </mxCell>
        <mxCell id="V6rCQQX0uQh7xSVh1jad-42" value="" style="endArrow=classic;html=1;rounded=0;exitX=0.5;exitY=1;exitDx=0;exitDy=0;entryX=0.5;entryY=0;entryDx=0;entryDy=0;" edge="1" parent="1" source="V6rCQQX0uQh7xSVh1jad-24" target="V6rCQQX0uQh7xSVh1jad-25">
          <mxGeometry width="50" height="50" relative="1" as="geometry">
            <mxPoint x="490" y="570" as="sourcePoint" />
            <mxPoint x="510" y="515" as="targetPoint" />
          </mxGeometry>
        </mxCell>
        <mxCell id="V6rCQQX0uQh7xSVh1jad-43" value="" style="endArrow=none;html=1;rounded=0;entryX=0;entryY=0.5;entryDx=0;entryDy=0;" edge="1" parent="1" source="V6rCQQX0uQh7xSVh1jad-7" target="V6rCQQX0uQh7xSVh1jad-25">
          <mxGeometry width="50" height="50" relative="1" as="geometry">
            <mxPoint x="90" y="590" as="sourcePoint" />
            <mxPoint x="140" y="540" as="targetPoint" />
          </mxGeometry>
        </mxCell>
        <mxCell id="V6rCQQX0uQh7xSVh1jad-44" value="" style="endArrow=none;html=1;rounded=0;entryX=0.5;entryY=0.5;entryDx=0;entryDy=0;entryPerimeter=0;exitX=1;exitY=0.5;exitDx=0;exitDy=0;" edge="1" parent="1" source="V6rCQQX0uQh7xSVh1jad-25" target="V6rCQQX0uQh7xSVh1jad-8">
          <mxGeometry width="50" height="50" relative="1" as="geometry">
            <mxPoint x="570" y="555" as="sourcePoint" />
            <mxPoint x="540" y="520" as="targetPoint" />
          </mxGeometry>
        </mxCell>
        <mxCell id="V6rCQQX0uQh7xSVh1jad-46" value="" style="endArrow=none;html=1;rounded=0;entryX=0;entryY=0.5;entryDx=0;entryDy=0;exitX=1;exitY=1;exitDx=0;exitDy=0;exitPerimeter=0;" edge="1" parent="1" source="V6rCQQX0uQh7xSVh1jad-1" target="V6rCQQX0uQh7xSVh1jad-25">
          <mxGeometry width="50" height="50" relative="1" as="geometry">
            <mxPoint x="80" y="380" as="sourcePoint" />
            <mxPoint x="130" y="330" as="targetPoint" />
          </mxGeometry>
        </mxCell>
      </root>
    </mxGraphModel>
  </diagram>
</mxfile>
